<?xml version="1.0" standalone="no"?>
<!DOCTYPE svg PUBLIC "-//W3C//DTD SVG 20010904//EN"
 "http://www.w3.org/TR/2001/REC-SVG-20010904/DTD/svg10.dtd">
<svg version="1.0" xmlns="http://www.w3.org/2000/svg"
 width="396.000000pt" height="396.000000pt" viewBox="0 0 396.000000 396.000000"
 preserveAspectRatio="xMidYMid meet">
<metadata>
Created by potrace 1.11, written by Peter Selinger 2001-2013
</metadata>
<g transform="translate(0.000000,396.000000) scale(0.100000,-0.100000)"
fill="#000000" stroke="none">
<path d="M2907 3364 c-1 -1 -18 -4 -37 -7 -151 -21 -347 -107 -514 -226 -173
-122 -364 -344 -440 -513 l-26 -57 0 -983 1 -983 23 60 c155 401 565 719 954
740 35 2 66 5 67 7 2 2 7 91 10 198 3 107 8 256 10 330 3 74 7 227 10 340 3
113 7 268 10 345 2 77 7 237 10 355 4 118 8 257 10 308 l3 92 -45 -2 c-24 -2
-45 -4 -46 -4z"/>
<path d="M11 3100 c-11 -6 -10 -54 14 -455 3 -49 7 -135 10 -190 3 -55 7 -134
10 -175 2 -41 7 -124 10 -185 3 -60 8 -144 10 -185 3 -41 7 -124 10 -185 3
-60 7 -139 10 -175 3 -59 13 -233 20 -365 l3 -50 158 -1 c315 -2 509 -24 729
-81 292 -76 564 -224 748 -408 l57 -57 0 990 0 990 -92 94 c-105 106 -220 186
-361 253 -146 70 -342 129 -494 150 -21 3 -47 7 -58 10 -19 4 -55 9 -160 21
-68 8 -612 12 -624 4z"/>
<path d="M3657 3104 c-1 -1 -49 -4 -107 -8 -58 -3 -122 -8 -142 -11 -21 -3
-53 -7 -70 -9 -18 -2 -86 -12 -150 -22 -114 -18 -118 -19 -119 -44 -4 -91 -7
-184 -13 -405 -8 -262 -13 -427 -21 -685 -2 -85 -7 -254 -11 -375 -3 -121 -7
-221 -8 -223 -2 -1 -25 -4 -52 -6 -131 -11 -255 -44 -387 -104 -64 -29 -173
-91 -207 -118 -146 -115 -237 -215 -294 -324 -34 -64 -69 -160 -62 -167 1 -2
17 15 35 37 27 33 100 100 188 171 38 31 178 112 248 144 109 51 296 115 379
131 12 2 55 11 97 19 170 35 290 44 549 40 140 -2 274 -6 298 -9 31 -5 42 -3
43 6 3 36 7 105 13 218 3 69 8 159 11 200 7 122 23 409 30 535 8 164 16 302
20 365 2 36 6 115 10 175 7 141 13 256 20 373 l6 92 -53 1 c-118 3 -250 4
-251 3z"/>
</g>
</svg>
